<svg width="56" height="18" viewBox="0 0 56 18" fill="none" xmlns="http://www.w3.org/2000/svg">
<path d="M11.2479 4.76801H11.2639V13.04H13.8239V0.512008H10.3839L6.89595 8.91201L3.34395 0.512008H-5.45979e-05V13.04H2.54395V4.83201H2.55995L6.03195 13.04H7.75995L11.2479 4.76801ZM18.8303 13.2C19.9663 13.2 20.8143 12.784 21.3903 11.968L21.4223 11.984V13.04H23.7263V7.74401C23.7263 5.50401 22.2703 4.30401 20.0143 4.30401C18.1423 4.30401 16.8303 4.97601 16.0943 6.33601L17.9983 7.47201C18.4303 6.70401 19.0543 6.32001 19.9023 6.32001C20.7983 6.32001 21.2783 6.78401 21.2783 7.37601C21.2783 7.79201 21.0543 8.00001 20.6063 8.00001H19.7583C18.7983 8.00001 17.9983 8.14401 17.2143 8.51201C16.4463 8.88001 15.9503 9.61601 15.9503 10.624V10.656C15.9503 11.424 16.2223 12.048 16.7823 12.512C17.3423 12.976 18.0303 13.2 18.8303 13.2ZM19.5503 11.376C18.9103 11.376 18.4623 11.088 18.4623 10.512C18.4623 9.87201 19.0383 9.53601 19.7583 9.53601H21.2623V9.72801C21.2623 10.672 20.6223 11.376 19.5503 11.376ZM25.6099 14.864C26.3779 16.496 27.8179 17.312 29.9299 17.312C31.2899 17.312 32.3939 16.944 33.2419 16.192C34.1059 15.44 34.5379 14.4 34.5379 13.072V4.49601H32.0899V5.53601H32.0579C31.4019 4.75201 30.5379 4.36801 29.4659 4.36801C28.2819 4.36801 27.3059 4.80001 26.5539 5.68001C25.8019 6.54401 25.4339 7.55201 25.4339 8.68801C25.4339 9.90401 25.8179 10.928 26.5859 11.744C27.3539 12.56 28.3459 12.976 29.5619 12.976C30.6179 12.976 31.4339 12.592 32.0259 11.84H32.0579V13.136C32.0579 14.464 31.2099 15.136 29.9139 15.136C28.8739 15.136 28.1219 14.656 27.6419 13.696L25.6099 14.864ZM32.1219 8.68801C32.1219 9.95201 31.2099 10.8 30.0419 10.8C28.8419 10.8 27.9619 9.95201 27.9619 8.68801C27.9619 7.45601 28.8739 6.59201 30.0419 6.59201C31.2419 6.59201 32.1219 7.45601 32.1219 8.68801ZM39.3642 7.62939e-06H36.8522V13.04H39.3642V7.62939e-06ZM41.1367 8.78401C41.1367 10.064 41.5847 11.12 42.4807 11.968C43.3767 12.816 44.4807 13.232 45.7927 13.232C47.0887 13.232 48.1927 12.8 49.1047 11.952C50.0167 11.088 50.4647 10.016 50.4647 8.73601C50.4647 7.47201 50.0167 6.43201 49.1207 5.58401C48.2247 4.73601 47.1207 4.30401 45.8247 4.30401C44.5287 4.30401 43.4087 4.73601 42.4967 5.60001C41.5847 6.44801 41.1367 7.52001 41.1367 8.78401ZM43.6967 8.75201C43.6967 8.12801 43.9047 7.60001 44.3047 7.20001C44.7047 6.78401 45.2007 6.57601 45.7927 6.57601C46.3847 6.57601 46.8967 6.78401 47.2967 7.20001C47.6967 7.60001 47.9047 8.12801 47.9047 8.75201C47.9047 10.032 47.0087 10.944 45.8087 10.944C45.2167 10.944 44.7047 10.736 44.3047 10.336C43.9047 9.92001 43.6967 9.39201 43.6967 8.75201ZM53.6028 13.232C54.0828 13.232 54.4828 13.056 54.8188 12.72C55.1548 12.384 55.3308 11.968 55.3308 11.504C55.3308 10.544 54.5628 9.76001 53.6028 9.76001C52.6428 9.76001 51.8748 10.544 51.8748 11.504C51.8748 11.968 52.0508 12.384 52.3868 12.72C52.7228 13.056 53.1388 13.232 53.6028 13.232Z" fill="white"/>
</svg>
